<?xml version="1.0" encoding="UTF-8" standalone="no"?>
<!DOCTYPE svg PUBLIC "-//W3C//DTD SVG 1.1//EN" "http://www.w3.org/Graphics/SVG/1.1/DTD/svg11.dtd">
<svg width="100%" height="100%" viewBox="0 0 393 265" version="1.1" xmlns="http://www.w3.org/2000/svg" xmlns:xlink="http://www.w3.org/1999/xlink" xml:space="preserve" xmlns:serif="http://www.serif.com/" style="fill-rule:evenodd;clip-rule:evenodd;stroke-linejoin:round;stroke-miterlimit:2;">
    <g transform="matrix(1,0,0,1,-763.668,-407.874)">
        <g transform="matrix(1,0,0,1,908.497,648.142)">
            <path d="M0,14.384L-16.903,14.384L-16.903,11.986L-0.516,11.986C-0.769,10.5 -0.89,8.901 -0.89,7.192C-0.89,5.482 -0.769,3.874 -0.516,2.387L-16.903,2.387L-16.903,-0.01L0,-0.01C1.224,-4.401 3.692,-7.618 7.344,-9.6L-26.503,-9.6L-26.503,22.476L-33.361,10.621C-30.367,8.972 -28.87,5.826 -28.87,1.193C-28.87,-6.009 -32.471,-9.6 -39.673,-9.6L-64.568,-9.6L-59.024,-0.01L-39.673,-0.01C-38.874,-0.01 -38.47,0.394 -38.47,1.193C-38.47,1.992 -38.874,2.387 -39.673,2.387L-60.066,2.387L-60.066,23.984L-50.467,23.984L-50.467,11.986L-43.628,11.986L-36.699,23.984L7.364,23.984C3.702,22.001 1.224,18.774 0,14.384" style="fill:white;fill-rule:nonzero;"/>
        </g>
        <g transform="matrix(1,0,0,1,938.358,648.142)">
            <path d="M0,14.384L-11.552,14.384C-16.357,14.384 -18.754,11.986 -18.754,7.192C-18.754,2.387 -16.357,-0.01 -11.552,-0.01L0.445,-0.01L5.989,-9.6L-11.552,-9.6C-22.75,-9.6 -28.354,-4.006 -28.354,7.192C-28.354,18.39 -22.75,23.984 -11.552,23.984L7.354,23.984C3.692,22.001 1.224,18.774 0,14.384" style="fill:white;fill-rule:nonzero;"/>
        </g>
        <g transform="matrix(1,0,0,1,1053.27,662.536)">
            <path d="M0,-14.404L17.247,-14.404L22.791,-23.994L0,-23.994C-7.202,-23.994 -10.793,-20.403 -10.793,-13.2C-10.793,-6.008 -7.202,-2.407 0,-2.407L9.6,-2.407C10.399,-2.407 10.794,-2.002 10.794,-1.203C10.794,-0.404 10.399,-0.01 9.6,-0.01L-13.201,-0.01L-7.657,9.59L9.6,9.59C16.792,9.59 20.393,5.989 20.393,-1.203C20.393,-8.406 16.792,-12.007 9.6,-12.007L0,-12.007C-0.799,-12.007 -1.204,-12.401 -1.204,-13.2C-1.204,-13.999 -0.799,-14.404 0,-14.404" style="fill:white;fill-rule:nonzero;"/>
        </g>
        <g transform="matrix(1,0,0,1,956.657,648.142)">
            <path d="M0,14.384C-4.795,14.384 -7.202,11.986 -7.202,7.192C-7.202,2.387 -4.795,-0.01 0,-0.01C4.795,-0.01 7.202,2.387 7.202,7.192C7.202,11.986 4.795,14.384 0,14.384M0,-9.6C-4.825,-9.6 -8.598,-8.569 -11.34,-6.485L-16.347,2.185C-16.64,3.702 -16.792,5.371 -16.792,7.192C-16.792,18.39 -11.198,23.984 0,23.984C11.198,23.984 16.792,18.39 16.792,7.192C16.792,-4.006 11.198,-9.6 0,-9.6" style="fill:white;fill-rule:nonzero;"/>
        </g>
        <g transform="matrix(1,0,0,1,1023.81,672.126)">
            <path d="M0,-33.584L-18.957,-33.584C-16.205,-31.571 -14.647,-28.334 -14.404,-23.994L0,-23.994C4.805,-23.994 7.203,-21.597 7.203,-16.792C7.203,-11.997 4.805,-9.6 0,-9.6L-4.795,-9.6L-4.795,-21.597L-14.394,-21.597L-14.394,-1.487L-21.263,-13.363C-18.269,-15.012 -16.772,-18.158 -16.772,-22.79C-16.772,-29.993 -20.373,-33.584 -27.575,-33.584L-47.968,-33.584L-47.968,-23.994L-27.575,-23.994C-26.776,-23.994 -26.371,-23.59 -26.371,-22.79C-26.371,-21.991 -26.776,-21.597 -27.575,-21.597L-47.968,-21.597L-47.968,0L-38.368,0L-38.368,-11.997L-31.53,-11.997L-24.601,0L0,0C11.198,0 16.802,-5.594 16.802,-16.792C16.802,-27.99 11.198,-33.584 0,-33.584" style="fill:white;fill-rule:nonzero;"/>
        </g>
        <g transform="matrix(1,0,0,1,874.326,432.7)">
            <path d="M0,50.803L-53.707,50.803L-39.371,75.629L0,75.629C18.626,75.629 27.939,66.316 27.939,47.716C27.939,29.09 18.626,19.803 0,19.803L-24.8,19.803C-26.867,19.803 -27.913,18.757 -27.913,16.69C-27.913,14.624 -26.867,13.577 -24.8,13.577L34.191,13.577L34.191,75.629L82.561,75.629L111.965,24.747L127.034,50.803L104.065,50.803L89.729,75.629L190.969,75.629L190.969,36.18L225.055,-11.223L194.526,-11.223L178.569,10.987L162.611,-11.223L132.108,-11.223L166.169,36.18L166.169,69.01L111.965,-24.826L59.017,66.839L59.017,13.577L82.614,13.577L96.949,-11.249L0.079,-11.249L0.105,-11.223L-24.8,-11.223C-43.426,-11.223 -52.739,-1.936 -52.739,16.69C-52.739,35.29 -43.426,44.603 -24.8,44.603L0,44.603C2.067,44.603 3.113,45.649 3.113,47.716C3.113,49.783 2.067,50.803 0,50.803" style="fill:white;fill-rule:nonzero;"/>
        </g>
        <g transform="matrix(1,0,0,1,991.758,576.529)">
            <path d="M0,-37.226L0,-62.052L-78.219,-62.052L-78.219,24.826L0,24.826L0,0L-53.419,0L-53.419,-6.2L-18.286,-6.2L-3.95,-31.026L-53.419,-31.026L-53.419,-37.226L0,-37.226Z" style="fill:white;fill-rule:nonzero;"/>
        </g>
        <g transform="matrix(1,0,0,1,882.514,632.328)">
            <path d="M0,-117.825L0,0L55.172,0L69.481,-24.8L24.826,-24.8L24.826,-117.825L0,-117.825Z" style="fill:white;fill-rule:nonzero;"/>
        </g>
        <g transform="matrix(1,0,0,1,845.314,542.416)">
            <path d="M0,31.026C0,12.426 -9.313,3.113 -27.939,3.113L-52.739,3.113C-54.805,3.113 -55.852,2.067 -55.852,0C-55.852,-2.067 -54.805,-3.087 -52.739,-3.087L-2.904,-3.087L6.174,-18.809L6.174,58.939L31,58.939L31,-27.913L-52.739,-27.913C-71.365,-27.913 -80.678,-18.6 -80.678,0C-80.678,18.626 -71.365,27.913 -52.739,27.913L-27.939,27.913C-25.872,27.913 -24.826,28.959 -24.826,31.026C-24.826,33.093 -25.872,34.139 -27.939,34.139L-81.646,34.139L-67.31,58.939L-27.939,58.939C-9.313,58.939 0,49.652 0,31.026" style="fill:white;fill-rule:nonzero;"/>
        </g>
        <g transform="matrix(-1,0,0,1,781.562,632.329)">
            <path d="M-94.752,-24.8L0,-24.8L-14.336,0L-94.752,0L-94.752,-24.8Z" style="fill:white;fill-rule:nonzero;"/>
        </g>
        <g transform="matrix(1,0,0,1,1053.81,632.302)">
            <path d="M0,-117.799L0,-76.858L-44.106,-117.825L-55.852,-117.825L-55.852,-30.948L-31.026,-30.948L-31.026,-71.888L19.699,-24.774L-94.647,-24.774L-108.957,0.026L68.383,0.026L68.383,-24.774L24.826,-24.774L24.826,-92.973L43.557,-92.973L43.557,-30.948L68.383,-30.948L68.383,-92.973L88.186,-92.973L102.522,-117.799L0,-117.799Z" style="fill:white;fill-rule:nonzero;"/>
        </g>
    </g>
</svg>
